Coordinates
version=1
nRows=17
nColumns=24
inDegrees=yes

Units are S.I. units (second, meters, Newtons, ...)
Angles are in degrees.

endheader
time	pelvis_tilt	pelvis_list	pelvis_rotation	pelvis_tx	pelvis_ty	pelvis_tz	hip_flexion_r	hip_adduction_r	hip_rotation_r	knee_angle_r	ankle_angle_r	subtalar_angle_r	mtp_angle_r	hip_flexion_l	hip_adduction_l	hip_rotation_l	knee_angle_l	ankle_angle_l	subtalar_angle_l	mtp_angle_l	lumbar_extension	lumbar_bending	lumbar_rotation
      0.64800000	     -1.71693868	      5.19381019	      5.70258422	     -0.73052483	      0.96742628	      0.27255023	     30.42963891	     -4.91659111	     -7.14612835	     -7.72460316	     10.27901958	     -4.26597445	      0.79602569	    -18.50704688	      7.91108154	      3.91131384	     -6.40385752	     10.94507474	      2.97992557	      0.97697539	     -0.28847721	     -4.12389522	     -5.01235056
      0.65216667	     -1.82971852	      5.12991282	      5.79933882	     -0.72440920	      0.96664190	      0.27267239	     30.48454627	     -4.84926986	     -7.11662213	     -8.08140786	      9.96979506	     -4.65937193	      5.46827326	    -18.53644186	      7.77333100	      3.87876302	     -6.78426612	     10.67143424	      3.00090714	      5.46765035	     -0.10059438	     -4.04193269	     -5.00060460
      0.65633333	     -1.91435950	      5.06879143	      5.91056929	     -0.71826464	      0.96591353	      0.27277545	     30.53250014	     -4.79576712	     -7.12090873	     -8.54963070	      9.92634763	     -4.87075694	      5.48099339	    -18.59727124	      7.63260704	      3.92203833	     -7.17335592	     10.49015467	      3.05616773	      5.48892879	      0.05038589	     -3.96688975	     -4.95669208
      0.66050000	     -2.03293728	      4.99305389	      5.98999111	     -0.71208946	      0.96514911	      0.27294737	     30.59013019	     -4.69875686	     -6.97974339	     -8.96553002	      9.70465336	     -5.30632765	      5.51723740	    -18.57871104	      7.48626442	      3.83331867	     -7.64140551	     10.32987393	      3.18427341	      5.58064935	      0.24635333	     -3.88086054	     -4.98729602
      0.66466667	     -2.14738227	      4.90072617	      6.07021975	     -0.70584795	      0.96442242	      0.27311616	     30.63240865	     -4.58534683	     -6.84560678	     -9.38306821	      9.42469205	     -5.76788500	      5.56275585	    -18.56414485	      7.32104004	      3.76049771	     -8.10427157	     10.12235160	      3.31185846	      5.71529521	      0.44957274	     -3.76432678	     -4.99752060
      0.66883333	     -2.22558975	      4.78596636	      6.13938002	     -0.69955243	      0.96377218	      0.27331128	     30.62309372	     -4.43731712	     -6.68320916	     -9.79423873	      9.15106520	     -6.34204400	      5.66149269	    -18.57823037	      7.12736235	      3.66156501	     -8.57413181	      9.85851667	      3.47446244	      6.03197537	      0.61308879	     -3.62046529	     -4.98666658
      0.67300000	     -2.34489815	      4.68220428	      6.20797383	     -0.69320750	      0.96308317	      0.27345866	     30.68736354	     -4.32237712	     -6.63228659	    -10.27132893	      8.75734392	     -6.59161536	      5.68618298	    -18.55968998	      6.95987236	      3.64831980	     -9.02548695	      9.54930960	      3.51437703	      6.13543322	      0.83618414	     -3.48547565	     -4.97173739
      0.67716667	     -2.45924527	      4.55356526	      6.23949249	     -0.68686861	      0.96241246	      0.27371530	     30.72765508	     -4.13773072	     -6.38733014	    -10.71244177	      8.37507850	     -7.37061800	      5.78141453	    -18.48844116	      6.76716010	      3.48035562	     -9.58028231	      9.31327192	      3.66752532	      6.50520888	      1.05265014	     -3.32516062	     -4.94159066
      0.68133333	     -2.58322525	      4.41162051	      6.28780834	     -0.68048161	      0.96179775	      0.27394641	     30.76306277	     -3.95289758	     -6.19524485	    -11.13280674	      7.93423125	     -8.01674106	      5.92033349	    -18.39697365	      6.55718106	      3.35978551	    -10.14148668	      8.94988994	      3.78799776	      7.08853015	      1.28746185	     -3.15336296	     -4.88425707
      0.68550000	     -2.68590351	      4.27011621	      6.30943942	     -0.67404575	      0.96121517	      0.27417497	     30.81044268	     -3.77385155	     -6.09937366	    -11.61798456	      7.40941325	     -8.40939609	      6.87432849	    -18.33186246	      6.35484027	      3.22649257	    -10.68507248	      8.50960700	      3.81154540	     11.31413165	      1.50371635	     -2.97191830	     -4.83919036
      0.68966667	     -2.81926365	      4.12740832	      6.33168820	     -0.66758333	      0.96065362	      0.27438284	     30.89630153	     -3.60208897	     -6.02830576	    -12.12264463	      6.88521635	     -8.72292115	      6.86743555	    -18.23032106	      6.16337181	      3.17737468	    -11.22992311	      8.02771204	      3.80250795	     11.34130362	      1.75364844	     -2.78419755	     -4.78328090
      0.69383333	     -2.95423071	      3.97648974	      6.32500003	     -0.66116884	      0.96010804	      0.27468941	     30.97309682	     -3.38580944	     -5.79531042	    -12.59654734	      6.33657225	     -9.45918168	      6.86808557	    -18.05644543	      5.96427601	      3.01116871	    -11.90579575	      7.64582800	      3.84885511	     11.47817755	      2.01241367	     -2.59765727	     -4.67354506
      0.69800000	     -3.07957200	      3.80106360	      6.31078473	     -0.65468712	      0.95962893	      0.27498771	     31.05369620	     -3.15547458	     -5.65696469	    -13.10553138	      5.79460942	     -9.96782983	      6.86937026	    -17.90392688	      5.74064785	      2.87685932	    -12.54459129	      7.14058791	      3.88457745	     11.65368978	      2.25678816	     -2.37832489	     -4.58202181
      0.70216667	     -3.19922541	      3.61264598	      6.27033018	     -0.64818725	      0.95918811	      0.27532844	     31.13892414	     -2.89678275	     -5.48519889	    -13.63893378	      5.27912617	    -10.63445448	      6.87550039	    -17.73384480	      5.50951253	      2.71938608	    -13.21747563	      6.62042665	      3.94493414	     11.99301178	      2.51619336	     -2.12255101	     -4.44918771
      0.70633333	     -3.32898230	      3.43316133	      6.23657180	     -0.64171585	      0.95879726	      0.27566194	     31.23362031	     -2.65800278	     -5.34171529	    -14.16486947	      4.74253815	    -11.08715571	      6.87685739	    -17.50875827	      5.28816541	      2.56837782	    -13.96421607	      6.04261864	      3.94422669	     12.36485894	      2.77515476	     -1.89568250	     -4.33368858
      0.71050000	     -3.42239306	      3.21005714	      6.17481803	     -0.63517410	      0.95849725	      0.27605088	     31.30057131	     -2.36318031	     -5.22421845	    -14.72336274	      4.30471986	    -11.53924847	      6.91970591	    -17.31583311	      5.01571461	      2.36195624	    -14.68605236	      5.33708108	      3.94686118	     17.20011814	      2.99705323	     -1.60182739	     -4.26201965
      0.71466667	     -3.53469957	      3.03802305	      6.10504653	     -0.62870883	      0.95820519	      0.27642133	     31.41748496	     -2.12949516	     -5.12160157	    -15.33848799	      3.83797394	    -11.86311823	      6.90629335	    -17.07401059	      4.81728763	      2.25523695	    -15.47750045	      4.66433924	      3.85823846	     17.25861194	      3.23100718	     -1.37609790	     -4.08682013
